<svg xmlns="http://www.w3.org/2000/svg" fill="none" viewBox="0 0 220 78">
  <path d="M2.115 13.727l51.399 23.46L108.72 2.746l55.84 72.127 52.456-72.127" stroke="#5E9BC3" stroke-width="2"/>
  <mask id="tTrfzS9yxa" fill="#fff">
    <ellipse cx="2.115" cy="13.477" rx="2.115" ry="2.496"/>
  </mask>
  <ellipse cx="2.115" cy="13.477" rx="2.115" ry="2.496" fill="#fff"/>
  <path d="M1.23 13.477c0 .01-.004-.06.092-.175.102-.12.372-.329.793-.329v6c3.271 0 5.115-2.945 5.115-5.496h-6zm.885-.504c.422 0 .691.21.793.33.097.113.092.185.092.174h-6c0 2.551 1.844 5.496 5.115 5.496v-6zm.885.504c0-.01.005.061-.092.175a1.05 1.05 0 01-.793.33v-6C-1.156 7.981-3 10.926-3 13.476h6zm-.885.505c-.421 0-.691-.21-.793-.33-.096-.114-.092-.185-.092-.175h6c0-2.55-1.844-5.496-5.115-5.496v6z" fill="#5E9BC3" mask="url(#tTrfzS9yxa)"/>
  <mask id="tTrfzS9yxb" fill="#fff">
    <ellipse cx="53.725" cy="36.937" rx="2.115" ry="2.496"/>
  </mask>
  <ellipse cx="53.725" cy="36.937" rx="2.115" ry="2.496" fill="#fff"/>
  <path d="M52.84 36.937c0 .01-.004-.06.092-.175.102-.12.372-.33.793-.33v6c3.271 0 5.115-2.944 5.115-5.495h-6zm.885-.504c.422 0 .691.209.793.33.097.113.092.184.092.174h-6c0 2.55 1.844 5.496 5.115 5.496v-6zm.885.504c0-.01.005.061-.092.175a1.05 1.05 0 01-.793.33v-6c-3.271 0-5.115 2.944-5.115 5.495h6zm-.885.504c-.421 0-.69-.209-.793-.329-.096-.114-.092-.185-.092-.175h6c0-2.55-1.844-5.496-5.115-5.496v6z" fill="#5E9BC3" mask="url(#tTrfzS9yxb)"/>
  <mask id="tTrfzS9yxc" fill="#fff">
    <ellipse cx="108.72" cy="2.496" rx="2.115" ry="2.496"/>
  </mask>
  <ellipse cx="108.72" cy="2.496" rx="2.115" ry="2.496" fill="#fff"/>
  <path d="M107.835 2.496c0 .01-.005-.061.092-.175.102-.12.371-.33.793-.33v6c3.271 0 5.115-2.945 5.115-5.495h-6zm.885-.504c.421 0 .691.209.793.329.096.114.092.185.092.175h-6c0 2.55 1.843 5.496 5.115 5.496v-6zm.885.504c0-.01.004.06-.092.175-.102.12-.372.329-.793.329v-6c-3.272 0-5.115 2.945-5.115 5.496h6zM108.72 3a1.05 1.05 0 01-.793-.33c-.097-.113-.092-.185-.092-.174h6c0-2.551-1.844-5.496-5.115-5.496v6z" fill="#5E9BC3" mask="url(#tTrfzS9yxc)"/>
  <mask id="tTrfzS9yxd" fill="#fff">
    <ellipse cx="164.56" cy="74.873" rx="2.115" ry="2.496"/>
  </mask>
  <ellipse cx="164.56" cy="74.873" rx="2.115" ry="2.496" fill="#fff"/>
  <path d="M163.675 74.873c0 .01-.004-.061.092-.175.102-.12.372-.33.793-.33v6c3.271 0 5.115-2.945 5.115-5.495h-6zm.885-.505c.422 0 .691.21.793.33.097.114.092.185.092.175h-6c0 2.55 1.844 5.495 5.115 5.495v-6zm.885.505c0-.01.005.06-.092.175-.102.12-.371.329-.793.329v-6c-3.271 0-5.115 2.945-5.115 5.496h6zm-.885.504c-.421 0-.691-.21-.793-.33-.096-.113-.092-.185-.092-.174h6c0-2.551-1.844-5.496-5.115-5.496v6z" fill="#5E9BC3" mask="url(#tTrfzS9yxd)"/>
  <mask id="tTrfzS9yxe" fill="#fff">
    <ellipse cx="217.016" cy="2.496" rx="2.115" ry="2.496"/>
  </mask>
  <ellipse cx="217.016" cy="2.496" rx="2.115" ry="2.496" fill="#fff"/>
  <path d="M216.132 2.496c0 .01-.005-.061.091-.175.102-.12.372-.33.793-.33v6c3.272 0 5.116-2.945 5.116-5.495h-6zm.884-.504c.422 0 .691.209.793.329.097.114.092.185.092.175h-6c0 2.55 1.844 5.496 5.115 5.496v-6zm.885.504c0-.01.005.06-.092.175-.102.12-.371.329-.793.329v-6c-3.271 0-5.115 2.945-5.115 5.496h6zm-.885.504c-.421 0-.691-.21-.793-.33-.096-.113-.091-.185-.091-.174h6c0-2.551-1.844-5.496-5.116-5.496v6z" fill="#5E9BC3" mask="url(#tTrfzS9yxe)"/>
</svg>
