<svg xmlns="http://www.w3.org/2000/svg" fill="none" viewBox="0 0 220 107">
  <path d="M2.115 2.496l51.61 102.076 54.995-39.433 55.84 38.934 52.456-26.705" stroke="#95A7B5" stroke-width="2"/>
  <mask id="2Iz6XVmJ0a" fill="#fff">
    <ellipse cx="2.115" cy="2.496" rx="2.115" ry="2.496"/>
  </mask>
  <ellipse cx="2.115" cy="2.496" rx="2.115" ry="2.496" fill="#fff"/>
  <path d="M1.23 2.496c0 .01-.004-.061.092-.175.102-.12.372-.33.793-.33v6c3.271 0 5.115-2.945 5.115-5.495h-6zm.885-.504c.422 0 .691.209.793.329.097.114.092.185.092.175h-6c0 2.55 1.844 5.496 5.115 5.496v-6zM3 2.496c0-.01.005.06-.092.175-.102.12-.371.329-.793.329v-6C-1.156-3-3-.055-3 2.496h6zM2.115 3c-.421 0-.69-.21-.793-.33-.096-.113-.092-.185-.092-.174h6C7.23-.055 5.386-3 2.115-3v6z" fill="#95A7B5" mask="url(#2Iz6XVmJ0a)"/>
  <mask id="2Iz6XVmJ0b" fill="#fff">
    <ellipse cx="53.725" cy="104.323" rx="2.115" ry="2.496"/>
  </mask>
  <ellipse cx="53.725" cy="104.323" rx="2.115" ry="2.496" fill="#fff"/>
  <path d="M52.84 104.323c0 .01-.004-.061.092-.175.102-.12.372-.33.793-.33v6c3.271 0 5.115-2.945 5.115-5.495h-6zm.885-.505c.422 0 .691.21.793.33.097.114.092.185.092.175h-6c0 2.55 1.844 5.495 5.115 5.495v-6zm.885.505c0-.011.005.061-.092.175-.102.12-.371.329-.793.329v-6c-3.271 0-5.115 2.945-5.115 5.496h6zm-.885.504c-.421 0-.69-.209-.793-.329-.096-.114-.092-.186-.092-.175h6c0-2.551-1.844-5.496-5.115-5.496v6z" fill="#95A7B5" mask="url(#2Iz6XVmJ0b)"/>
  <mask id="2Iz6XVmJ0c" fill="#fff">
    <ellipse cx="108.72" cy="65.389" rx="2.115" ry="2.496"/>
  </mask>
  <ellipse cx="108.72" cy="65.389" rx="2.115" ry="2.496" fill="#fff"/>
  <path d="M107.835 65.389c0 .01-.005-.061.092-.175.102-.12.371-.33.793-.33v6c3.271 0 5.115-2.945 5.115-5.495h-6zm.885-.504c.421 0 .691.209.793.329.096.114.092.185.092.175h-6c0 2.55 1.843 5.496 5.115 5.496v-6zm.885.504c0-.01.004.06-.092.175-.102.12-.372.33-.793.33v-6c-3.272 0-5.115 2.944-5.115 5.495h6zm-.885.504a1.05 1.05 0 01-.793-.33c-.097-.113-.092-.184-.092-.174h6c0-2.55-1.844-5.496-5.115-5.496v6z" fill="#95A7B5" mask="url(#2Iz6XVmJ0c)"/>
  <mask id="2Iz6XVmJ0d" fill="#fff">
    <ellipse cx="164.56" cy="103.824" rx="2.115" ry="2.496"/>
  </mask>
  <ellipse cx="164.56" cy="103.824" rx="2.115" ry="2.496" fill="#fff"/>
  <path d="M163.675 103.824c0 .01-.004-.061.092-.175.102-.12.372-.33.793-.33v6c3.271 0 5.115-2.945 5.115-5.495h-6zm.885-.505c.422 0 .691.21.793.33.097.114.092.185.092.175h-6c0 2.55 1.844 5.495 5.115 5.495v-6zm.885.505c0-.011.005.061-.092.175-.102.12-.371.329-.793.329v-6c-3.271 0-5.115 2.945-5.115 5.496h6zm-.885.504c-.421 0-.691-.209-.793-.329-.096-.114-.092-.186-.092-.175h6c0-2.551-1.844-5.496-5.115-5.496v6z" fill="#95A7B5" mask="url(#2Iz6XVmJ0d)"/>
  <mask id="2Iz6XVmJ0e" fill="#fff">
    <ellipse cx="217.016" cy="77.369" rx="2.115" ry="2.496"/>
  </mask>
  <ellipse cx="217.016" cy="77.369" rx="2.115" ry="2.496" fill="#fff"/>
  <path d="M216.132 77.369c0 .01-.005-.061.091-.175.102-.12.372-.33.793-.33v6c3.272 0 5.116-2.945 5.116-5.495h-6zm.884-.505c.422 0 .691.21.793.33.097.114.092.185.092.175h-6c0 2.55 1.844 5.495 5.115 5.495v-6zm.885.505c0-.01.005.06-.092.174a1.05 1.05 0 01-.793.33v-6c-3.271 0-5.115 2.945-5.115 5.496h6zm-.885.504c-.421 0-.691-.21-.793-.33-.096-.113-.091-.185-.091-.174h6c0-2.551-1.844-5.496-5.116-5.496v6z" fill="#95A7B5" mask="url(#2Iz6XVmJ0e)"/>
</svg>
