<svg xmlns="http://www.w3.org/2000/svg" fill="none" viewBox="0 0 220 120">
  <path d="M2.115 2.789l51.61 114.086 54.995-44.073 55.84 43.515 52.456-29.847" stroke="#95A7B5" stroke-width="2"/>
  <mask id="VcEC7ISHvma" fill="#fff">
    <ellipse cx="2.115" cy="2.789" rx="2.115" ry="2.789"/>
  </mask>
  <ellipse cx="2.115" cy="2.789" rx="2.115" ry="2.789" fill="#fff"/>
  <path d="M1.23 2.79c0 .176-.057.222-.01.16.05-.066.337-.371.895-.371v6c1.726 0 3.071-.93 3.886-2.005.814-1.072 1.23-2.42 1.23-3.785h-6zm.885-.211c.558 0 .846.305.895.37.048.063-.01.017-.01-.16h-6c0 1.365.416 2.713 1.23 3.785C-.957 7.65.39 8.58 2.114 8.58v-6zm.885.21c0-.176.058-.222.01-.16-.05.066-.337.371-.895.371v-6C.39-3-.956-2.07-1.77-.996-2.584.077-3 1.425-3 2.79h6zM2.115 3c-.558 0-.845-.305-.895-.37-.047-.063.01-.017.01.16h6c0-1.365-.415-2.713-1.229-3.786C5.186-2.07 3.841-3 2.115-3v6z" fill="#95A7B5" mask="url(#VcEC7ISHvma)"/>
  <mask id="VcEC7ISHvmb" fill="#fff">
    <ellipse cx="53.725" cy="116.596" rx="2.115" ry="2.789"/>
  </mask>
  <ellipse cx="53.725" cy="116.596" rx="2.115" ry="2.789" fill="#fff"/>
  <path d="M52.84 116.596c0 .176-.057.223-.01.16.05-.065.337-.371.895-.371v6c1.726 0 3.071-.929 3.886-2.004.814-1.072 1.23-2.421 1.23-3.785h-6zm.885-.211c.558 0 .846.306.895.371.048.063-.01.016-.01-.16h-6c0 1.364.416 2.713 1.23 3.785.814 1.075 2.16 2.004 3.885 2.004v-6zm.885.211c0-.176.058-.223.01-.16-.05.065-.337.371-.895.371v-6c-1.726 0-3.071.929-3.886 2.004-.813 1.073-1.229 2.421-1.229 3.785h6zm-.885.211c-.558 0-.845-.306-.895-.371-.047-.063.01-.016.01.16h6c0-1.364-.416-2.712-1.229-3.785-.815-1.075-2.16-2.004-3.886-2.004v6z" fill="#95A7B5" mask="url(#VcEC7ISHvmb)"/>
  <mask id="VcEC7ISHvmc" fill="#fff">
    <ellipse cx="108.72" cy="73.082" rx="2.115" ry="2.789"/>
  </mask>
  <ellipse cx="108.72" cy="73.082" rx="2.115" ry="2.789" fill="#fff"/>
  <path d="M107.835 73.082c0 .176-.058.222-.01.16.049-.066.337-.371.895-.371v6c1.726 0 3.071-.93 3.886-2.004.813-1.073 1.229-2.421 1.229-3.785h-6zm.885-.211c.557 0 .845.305.894.37.048.063-.009.017-.009-.16h-6c0 1.365.415 2.713 1.229 3.785.814 1.075 2.16 2.005 3.886 2.005v-6zm.885.21c0-.176.057-.222.009-.16-.049.066-.337.371-.894.371v-6c-1.726 0-3.072.93-3.886 2.004-.814 1.073-1.229 2.421-1.229 3.785h6zm-.885.211c-.558 0-.846-.305-.895-.37-.048-.063.01-.017.01.16h6c0-1.365-.416-2.713-1.229-3.786-.815-1.074-2.16-2.004-3.886-2.004v6z" fill="#95A7B5" mask="url(#VcEC7ISHvmc)"/>
  <mask id="VcEC7ISHvmd" fill="#fff">
    <ellipse cx="164.56" cy="116.038" rx="2.115" ry="2.789"/>
  </mask>
  <ellipse cx="164.56" cy="116.038" rx="2.115" ry="2.789" fill="#fff"/>
  <path d="M163.675 116.038c0 .176-.057.223-.01.16.05-.065.337-.371.895-.371v6c1.726 0 3.071-.929 3.886-2.004.813-1.073 1.229-2.421 1.229-3.785h-6zm.885-.211c.558 0 .846.306.895.371.048.063-.01.016-.01-.16h-6c0 1.364.416 2.712 1.229 3.785.815 1.075 2.16 2.004 3.886 2.004v-6zm.885.211c0-.176.058-.223.01-.16-.049.065-.337.371-.895.371v-6c-1.726 0-3.071.929-3.886 2.004-.813 1.072-1.229 2.421-1.229 3.785h6zm-.885.211c-.558 0-.845-.306-.895-.371-.047-.063.01-.016.01.16h6c0-1.364-.416-2.713-1.229-3.785-.815-1.075-2.16-2.004-3.886-2.004v6z" fill="#95A7B5" mask="url(#VcEC7ISHvmd)"/>
  <mask id="VcEC7ISHvme" fill="#fff">
    <ellipse cx="217.016" cy="86.471" rx="2.115" ry="2.789"/>
  </mask>
  <ellipse cx="217.016" cy="86.471" rx="2.115" ry="2.789" fill="#fff"/>
  <path d="M216.132 86.47c0 .177-.058.223-.01.16.049-.065.337-.37.894-.37v6c1.726 0 3.072-.93 3.887-2.004.813-1.073 1.229-2.421 1.229-3.785h-6zm.884-.21c.558 0 .846.305.895.37.048.063-.01.017-.01-.16h-6c0 1.365.416 2.713 1.229 3.786.815 1.074 2.161 2.004 3.886 2.004v-6zm.885.21c0-.175.058-.222.01-.16-.049.066-.337.371-.895.371v-6c-1.725 0-3.071.93-3.886 2.005-.813 1.072-1.229 2.42-1.229 3.785h6zm-.885.211c-.557 0-.845-.305-.894-.37-.048-.063.01-.017.01.16h6c0-1.365-.416-2.713-1.229-3.785-.815-1.075-2.161-2.005-3.887-2.005v6z" fill="#95A7B5" mask="url(#VcEC7ISHvme)"/>
</svg>
