<svg xmlns="http://www.w3.org/2000/svg" fill="none" viewBox="0 0 220 87">
  <path d="M2.115 15.342l51.399 26.22L108.72 3.069l55.84 80.612L217.016 3.07" stroke="#5E9BC3" stroke-width="2"/>
  <mask id="_AhWoXCgPa" fill="#fff">
    <ellipse cx="2.115" cy="15.063" rx="2.115" ry="2.789"/>
  </mask>
  <ellipse cx="2.115" cy="15.063" rx="2.115" ry="2.789" fill="#fff"/>
  <path d="M1.23 15.063c0 .176-.057.222-.01.16.05-.066.337-.37.895-.37v6c1.726 0 3.071-.93 3.886-2.005.813-1.073 1.23-2.42 1.23-3.785h-6zm.885-.21c.558 0 .846.305.895.37.048.062-.01.016-.01-.16h-6c0 1.364.416 2.712 1.229 3.785.815 1.074 2.16 2.004 3.886 2.004v-6zm.885.21c0-.176.058-.223.01-.16-.05.065-.337.37-.895.37v-6c-1.726 0-3.071.93-3.886 2.005-.813 1.072-1.23 2.42-1.23 3.785h6zm-.885.21c-.558 0-.845-.305-.895-.37-.047-.063.01-.016.01.16h6c0-1.365-.416-2.713-1.229-3.785-.815-1.075-2.16-2.005-3.886-2.005v6z" fill="#5E9BC3" mask="url(#_AhWoXCgPa)"/>
  <mask id="_AhWoXCgPb" fill="#fff">
    <ellipse cx="53.725" cy="41.283" rx="2.115" ry="2.789"/>
  </mask>
  <ellipse cx="53.725" cy="41.283" rx="2.115" ry="2.789" fill="#fff"/>
  <path d="M52.84 41.283c0 .176-.057.222-.01.16.05-.066.337-.37.895-.37v6c1.726 0 3.071-.93 3.886-2.005.814-1.073 1.23-2.42 1.23-3.785h-6zm.885-.21c.558 0 .846.304.895.37.048.062-.01.016-.01-.16h-6c0 1.364.416 2.712 1.23 3.785.814 1.074 2.16 2.004 3.885 2.004v-6zm.885.21c0-.177.058-.223.01-.16-.05.065-.337.37-.895.37v-6c-1.726 0-3.071.93-3.886 2.005-.813 1.072-1.229 2.42-1.229 3.785h6zm-.885.21c-.558 0-.845-.305-.895-.37-.047-.063.01-.017.01.16h6c0-1.365-.416-2.713-1.229-3.785-.815-1.075-2.16-2.005-3.886-2.005v6z" fill="#5E9BC3" mask="url(#_AhWoXCgPb)"/>
  <mask id="_AhWoXCgPc" fill="#fff">
    <ellipse cx="108.72" cy="2.789" rx="2.115" ry="2.789"/>
  </mask>
  <ellipse cx="108.72" cy="2.789" rx="2.115" ry="2.789" fill="#fff"/>
  <path d="M107.835 2.79c0 .176-.058.222-.01.16.049-.066.337-.371.895-.371v6c1.726 0 3.071-.93 3.886-2.005.813-1.072 1.229-2.42 1.229-3.785h-6zm.885-.211c.557 0 .845.305.894.37.048.063-.009.017-.009-.16h-6c0 1.365.415 2.713 1.229 3.785.814 1.075 2.16 2.005 3.886 2.005v-6zm.885.21c0-.176.057-.222.009-.16-.049.066-.337.371-.894.371v-6c-1.726 0-3.072.93-3.886 2.004-.814 1.073-1.229 2.421-1.229 3.785h6zM108.72 3c-.558 0-.846-.305-.895-.37-.048-.063.01-.017.01.16h6c0-1.365-.416-2.713-1.229-3.786C111.791-2.07 110.446-3 108.72-3v6z" fill="#5E9BC3" mask="url(#_AhWoXCgPc)"/>
  <mask id="_AhWoXCgPd" fill="#fff">
    <ellipse cx="164.56" cy="83.681" rx="2.115" ry="2.789"/>
  </mask>
  <ellipse cx="164.56" cy="83.681" rx="2.115" ry="2.789" fill="#fff"/>
  <path d="M163.675 83.681c0 .177-.057.223-.01.16.05-.065.337-.37.895-.37v6c1.726 0 3.071-.93 3.886-2.005.813-1.072 1.229-2.42 1.229-3.785h-6zm.885-.21c.558 0 .846.305.895.37.048.063-.01.017-.01-.16h-6c0 1.365.416 2.713 1.229 3.785.815 1.075 2.16 2.005 3.886 2.005v-6zm.885.21c0-.176.058-.222.01-.16-.049.066-.337.37-.895.37v-6c-1.726 0-3.071.93-3.886 2.005-.813 1.073-1.229 2.42-1.229 3.785h6zm-.885.21c-.558 0-.845-.304-.895-.37-.047-.062.01-.016.01.16h6c0-1.364-.416-2.712-1.229-3.785-.815-1.074-2.16-2.004-3.886-2.004v6z" fill="#5E9BC3" mask="url(#_AhWoXCgPd)"/>
  <mask id="_AhWoXCgPe" fill="#fff">
    <ellipse cx="217.016" cy="2.789" rx="2.115" ry="2.789"/>
  </mask>
  <ellipse cx="217.016" cy="2.789" rx="2.115" ry="2.789" fill="#fff"/>
  <path d="M216.132 2.79c0 .176-.058.222-.01.16.049-.066.337-.371.894-.371v6c1.726 0 3.072-.93 3.887-2.005.813-1.072 1.229-2.42 1.229-3.785h-6zm.884-.211c.558 0 .846.305.895.37.048.063-.01.017-.01-.16h-6c0 1.365.416 2.713 1.229 3.785.815 1.075 2.161 2.005 3.886 2.005v-6zm.885.21c0-.176.058-.222.01-.16-.049.066-.337.371-.895.371v-6c-1.725 0-3.071.93-3.886 2.004-.813 1.073-1.229 2.421-1.229 3.785h6zm-.885.211c-.557 0-.845-.305-.894-.37-.048-.063.01-.017.01.16h6c0-1.365-.416-2.713-1.229-3.786C220.088-2.07 218.742-3 217.016-3v6z" fill="#5E9BC3" mask="url(#_AhWoXCgPe)"/>
</svg>
